<?xml version="1.0" standalone="no"?>
<!DOCTYPE svg PUBLIC "-//W3C//DTD SVG 20010904//EN"
 "http://www.w3.org/TR/2001/REC-SVG-20010904/DTD/svg10.dtd">
<svg version="1.0" xmlns="http://www.w3.org/2000/svg"
 width="16.000000pt" height="16.000000pt" viewBox="0 0 16.000000 16.000000"
 preserveAspectRatio="xMidYMid meet">
<metadata>
Created by potrace 1.11, written by Peter Selinger 2001-2013
</metadata>
<g transform="translate(0.000000,16.000000) scale(0.002909,-0.002909)"
fill="#000000" stroke="none">
<path d="M13 5267 c3 -17 12 -68 21 -112 9 -44 25 -125 36 -180 11 -55 22
-113 24 -130 3 -16 7 -37 10 -45 3 -8 8 -32 11 -53 3 -21 12 -71 20 -110 8
-40 16 -83 19 -97 3 -14 10 -50 16 -80 6 -30 13 -71 16 -90 3 -19 12 -62 19
-95 8 -33 17 -80 20 -105 9 -55 10 -60 18 -85 3 -11 8 -37 11 -58 3 -20 17
-92 30 -160 13 -67 28 -140 32 -162 4 -22 8 -44 9 -50 4 -13 25 -125 30 -150
2 -11 6 -30 8 -41 3 -12 8 -38 11 -58 3 -21 13 -70 21 -109 8 -40 17 -90 21
-112 3 -22 8 -43 10 -47 3 -4 7 -22 9 -40 3 -18 7 -44 10 -58 3 -14 8 -41 11
-60 4 -19 9 -44 11 -55 2 -11 6 -29 7 -40 2 -11 6 -31 10 -45 3 -14 8 -36 10
-50 3 -22 9 -51 20 -110 2 -8 6 -26 9 -40 8 -35 38 -189 43 -225 3 -16 9 -50
14 -75 10 -45 18 -88 25 -125 2 -11 13 -67 25 -125 11 -58 22 -116 25 -130 19
-98 28 -148 31 -165 3 -20 27 -136 38 -185 3 -13 8 -42 12 -65 3 -22 10 -60
16 -85 5 -25 12 -56 14 -70 3 -14 12 -61 20 -105 9 -44 18 -95 21 -113 2 -18
10 -54 16 -80 l12 -47 95 -32 c52 -18 95 -32 95 -33 1 -2 628 -214 655 -221
19 -6 44 -14 55 -19 24 -10 58 -23 65 -24 14 -3 328 -109 345 -116 11 -5 117
-41 235 -80 118 -39 224 -76 235 -81 11 -5 29 -11 40 -14 25 -6 222 -73 250
-85 11 -5 111 -39 222 -76 169 -57 205 -66 225 -57 13 6 82 33 153 61 441 171
653 254 670 263 12 6 27 11 35 12 8 2 20 5 25 9 6 3 105 42 220 87 116 45 219
85 230 90 11 5 47 19 80 31 59 23 71 27 169 69 27 12 53 21 58 21 5 0 28 8 51
18 23 11 133 55 245 98 l203 79 -5 35 c-3 19 -7 42 -10 50 -3 8 -7 33 -10 55
-3 22 -10 63 -15 90 -6 28 -12 59 -14 70 -5 24 -17 91 -23 125 -6 31 -52 275
-59 310 -3 14 -7 39 -9 56 -2 17 -6 35 -9 41 -3 5 -9 31 -12 59 -12 85 -13 92
-19 111 -5 15 -9 38 -20 110 -1 7 -5 15 -8 19 -4 3 -193 6 -420 6 -557 -1
-500 2 -493 -21 3 -11 8 -30 10 -43 3 -13 10 -48 16 -78 5 -30 12 -66 15 -80
2 -14 9 -45 14 -70 12 -56 20 -96 25 -136 l5 -31 -218 -86 c-119 -47 -230 -92
-247 -98 -16 -7 -32 -13 -35 -13 -3 -1 -34 -13 -70 -28 -68 -29 -681 -270
-714 -282 -12 -4 -121 27 -295 84 -152 51 -283 94 -291 97 -8 4 -17 7 -20 8
-10 2 -236 77 -250 82 -8 4 -17 7 -20 7 -10 3 -176 57 -190 63 -8 4 -17 7 -20
7 -16 4 -328 108 -345 115 -11 5 -39 14 -62 21 -45 14 -49 20 -58 85 -4 22 -8
48 -11 57 -3 9 -7 27 -10 40 -8 41 -25 122 -30 148 -6 29 -34 157 -40 185 -3
11 -7 35 -9 54 -3 18 -7 37 -10 41 -3 4 -7 27 -10 50 -3 24 -8 46 -10 50 -3 4
-7 25 -11 45 -3 21 -7 45 -9 54 -14 68 -38 180 -42 196 -2 11 -7 34 -9 51 l-4
32 1857 0 c1022 0 1864 1 1871 1 8 1 11 11 7 31 -3 17 -7 45 -10 63 -3 17 -8
39 -10 47 -2 8 -7 38 -11 65 -3 28 -8 59 -10 70 -2 11 -6 34 -9 50 -3 17 -7
44 -11 60 -3 17 -7 44 -10 60 -14 82 -46 273 -50 295 -5 25 -22 127 -28 165
-2 11 -4 27 -5 36 -1 14 -178 15 -1843 15 -1014 -1 -1860 1 -1880 2 -26 3 -36
9 -36 20 1 10 -5 37 -12 62 -7 25 -14 52 -15 60 -5 33 -17 89 -36 170 -11 47
-25 108 -31 135 -6 28 -14 63 -19 79 -5 16 -9 39 -9 52 l0 22 1858 1 c1021 0
1865 0 1875 1 13 0 17 5 13 18 -3 9 -8 34 -12 56 -3 21 -8 48 -10 60 -2 11 -7
35 -9 51 -3 17 -8 37 -10 45 -2 8 -7 29 -10 45 -5 34 -8 48 -30 155 -8 41 -17
86 -20 100 -3 14 -12 59 -20 100 -18 89 -20 101 -40 205 -9 44 -18 88 -21 97
-5 17 -137 18 -2335 18 l-2331 0 5 -33z"/>
</g>
</svg>
